{"title":"De Heineken Ontvoering (2011) Cam NL gesproken DutchReleaseTeam","uid":6783419,"size":1622839394,"categoryP":"video","categoryS":"movies","magnet":"?xt=urn:btih:0a913e636067a77e90d6b3ae637f6b0ddc210e99&amp;dn=De+Heineken+Ontvoering+%282011%29+Cam+NL+gesproken+DutchReleaseTeam&amp;tr=udp%3A%2F%2Ftracker.openbittorrent.com%3A80&amp;tr=udp%3A%2F%2Fopen.demonii.com%3A1337&amp;tr=udp%3A%2F%2Ftracker.coppersurfer.tk%3A6969&amp;tr=udp%3A%2F%2Fexodus.desync.com%3A6969","seeders":0,"leechers":1,"uploader":"Koedje","files":-1,"time":1319997698,"description":"[img]http://img513.imageshack.us/img513/8743/heinekeny.jpg[/img]\n\n\nNederland\nMisdaad / Thriller\n120 minuten\n\ngeregisseerd door Maarten Treurniet\nmet Rutger Hauer, Reinout Scholten van Aschat en Gijs Naber\n\nDe Heineken Ontvoering is geÃƒÂ¯nspireerd op de bekendste ontvoeringszaak in Nederland. De biermagnaat Alfred Heineken wordt in 1983 samen met zijn chauffeur Ab Doderer ontvoerd door vier mannen, die 35 miljoen gulden losgeld eisen. Vier jonge, op geld beluste criminelen die elkaar al van jongs af aan kennen en een hechte clan vormen, sluiten Heineken en Doderer twee weken lang op in een Amsterdamse loods. De film laat het spannende verhaal van de ontvoering en de jacht op de daders zien, maar biedt ook een kijkje in de psychologische machtsstrijd tussen Heineken en zijn ontvoerders.\n\n\n\nRedelijke cam, helaas is het beeld wel een beetje schuin opgenomen maar voor de mensen die hem echt willen zien, raad ik het aan toch te proberen. :lol:\nRESPECT VOOR DEGENE DIE DIT GEFILMT HEEFT! \n\n\n\nTrailer:\n\n\n\n\n\nScreenshots:\n\n[img]http://img85.imageshack.us/img85/8576/screenshot1qv.jpg[/img]\n\n[img]http://img27.imageshack.us/img27/5931/screenshot2jv.jpg[/img]\n\n[img]http://img818.imageshack.us/img818/66/screenshot3ra.jpg[/img]\n\n[img]http://img254.imageshack.us/img254/2711/screenshot4f.jpg[/img]\n\n\n\nINFO;\n\n\nVideo\nID                                       : 0\nFormat                                   : AVC\nFormat/Info                              : Advanced Video Codec\nFormat profile                           : &lt;a class=&quot;__cf_email__&quot; href=&quot;/cdn-cgi/l/email-protection&quot; data-cfemail=&quot;83c1e2f0e6efeaede6c3cfb0adb3&quot;&gt;[email&amp;#160;protected]&lt;/a&gt;&lt;script cf-hash='f9e31' type=&quot;text/javascript&quot;&gt;\n/* &lt;![CDATA[ */!function(){try{var t=&quot;currentScript&quot;in document?document.currentScript:function(){for(var t=document.getElementsByTagName(&quot;script&quot;),e=t.length;e--;)if(t[e].getAttribute(&quot;cf-hash&quot;))return t[e]}();if(t&amp;&amp;t.previousSibling){var e,r,n,i,c=t.previousSibling,a=c.getAttribute(&quot;data-cfemail&quot;);if(a){for(e=&quot;&quot;,r=parseInt(a.substr(0,2),16),n=2;a.length-n;n+=2)i=parseInt(a.substr(n,2),16)^r,e+=String.fromCharCode(i);e=document.createTextNode(e),c.parentNode.replaceChild(e,c)}}}catch(u){}}();/* ]]&gt; */&lt;/script&gt;\nFormat settings, CABAC                   : No\nFormat settings, ReFrames                : 1 frame\nFormat settings, GOP                     : M=1, N=12\nCodec ID                                 : H264\nDuration                                 : 1h 59mn\nBit rate mode                            : Variable\nBit rate                                 : 1 527 Kbps\nMaximum bit rate                         : 2 197 Kbps\nWidth                                    : 800 pixels\nHeight                                   : 480 pixels\nDisplay aspect ratio                     : 1.667\nFrame rate                               : 25.000 fps\nOriginal frame rate                      : 24.000 fps\nColor space                              : YUV\nChroma subsampling                       : 4:2:0\nBit depth                                : 8 bits\nScan type                                : Progressive\nBits/(Pixel*Frame)                       : 0.159\nStream size                              : 1.28 GiB (91%)\n\nAudio\nID                                       : 1\nFormat                                   : MPEG Audio\nFormat version                           : Version 1\nFormat profile                           : Layer 3\nMode                                     : Joint stereo\nMode extension                           : MS Stereo\nCodec ID                                 : 55\nCodec ID/Hint                            : MP3\nDuration                                 : 1h 54mn\nBit rate mode                            : Constant\nBit rate                                 : 128 Kbps\nChannel(s)                               : 2 channels\nSampling rate                            : 44.1 KHz\nCompression mode                         : Lossy\nStream size                              : 31.6 MiB (2%)\nAlignment                                : Aligned on interleaves\nInterleave, duration                     : 91 ms (2.27 video frames)\n\n\n\n\n\nDeze film wordt u aangeboden door het DutchReleaseTeam.\nVoor de reviews van de nieuwste films, muziek, series, games etc\nga dan eens naar http://www.hetmultimediacafe.be\n\nDutchReleaseteam = Hardcoded Dutch Subs\n\n\n\n\n\n [url=http://www.imdb.com/title/tt1846526/][img]http://hetmultimediacafe.nl/images/afbeeldingen/imdb.png[/img][/url] [url=http://www.moviemeter.nl/film/75990][img]http://hetmultimediacafe.nl/images/afbeeldingen/moviemeter.png[/img][/url]","torrent":{"xt":"urn:btih:0a913e636067a77e90d6b3ae637f6b0ddc210e99","amp;dn":"De+Heineken+Ontvoering+%282011%29+Cam+NL+gesproken+DutchReleaseTeam","amp;tr":["udp%3A%2F%2Ftracker.openbittorrent.com%3A80","udp%3A%2F%2Fopen.demonii.com%3A1337","udp%3A%2F%2Ftracker.coppersurfer.tk%3A6969","udp%3A%2F%2Fexodus.desync.com%3A6969"],"infoHash":"0a913e636067a77e90d6b3ae637f6b0ddc210e99","infoHashBuffer":{"type":"Buffer","data":[10,145,62,99,96,103,167,126,144,214,179,174,99,127,107,13,220,33,14,153]},"announce":[],"urlList":[]}}